<?xml version="1.0" standalone="no"?>
<!DOCTYPE svg PUBLIC "-//W3C//DTD SVG 20010904//EN"
 "http://www.w3.org/TR/2001/REC-SVG-20010904/DTD/svg10.dtd">
<svg version="1.0" xmlns="http://www.w3.org/2000/svg"
 width="518.000000pt" height="86.000000pt" viewBox="0 0 518.000000 86.000000"
 preserveAspectRatio="xMidYMid meet">
<style>
.p-letter {
  easing: 'easeInOutSine';
  stroke-dasharray: 5000;
  stroke-dashoffset: 1000;
  delay: 2;
  animation: dash 2s linear alternate infinite;
}

.v-letter {
  easing: 'easeInOutSine';
  stroke-dasharray: 5500;
  stroke-dashoffset: 1000;
  delay: 2;
  animation: dash 2s linear alternate infinite;
}
@keyframes dash {
  from {
    stroke-dashoffset: 5500;
  }
  to {
    stroke-dashoffset: 0;
  }
}

.n-letter {
  easing: 'easeInOutSine';
  stroke-dasharray: 6500;
  stroke-dashoffset: 0;
  delay: 2;
  animation: dash-n 2s linear alternate infinite;
}
@keyframes dash-n {
  from {
    stroke-dashoffset: 6500;
  }
  to {
    stroke-dashoffset: 0;
  }
}
</style>

<g transform="translate(0.000000,86.000000) scale(0.100000,-0.100000)"
fill="#000000" stroke="none">
<path class="p-letter" fill="#fff" stroke="#22bbea" stroke-width="90" d="M141 463 c-45 -197 -82 -364 -81 -370 0 -10 26 -13 94 -13 l94 0 21
98 c13 53 25 105 27 114 4 14 24 17 144 20 186 4 175 -7 235 247 25 106 45
201 45 211 0 9 -8 24 -18 33 -16 15 -49 17 -249 17 l-230 0 -82 -357z m375
240 c-7 -23 -66 -279 -66 -287 0 -3 -27 -6 -60 -6 -50 0 -60 3 -60 18 0 9 14
79 32 155 l32 137 64 0 c56 0 63 -2 58 -17z"/>
<path class="n-letter" fill="#fff" stroke="#22bbea" stroke-width="90" d="M820 814 c0 -6 -102 -456 -120 -529 -20 -84 -40 -177 -40 -191 0 -12
16 -14 92 -12 l93 3 17 65 c9 36 29 119 44 185 32 141 33 140 59 -97 l18 -158
93 0 c89 0 94 1 99 23 11 50 155 674 160 695 5 22 4 22 -92 22 l-98 0 -39
-173 c-22 -94 -43 -181 -47 -192 l-8 -20 0 20 c-2 29 -30 284 -37 328 l-6 37
-94 0 c-52 0 -94 -3 -94 -6z"/>
<path class="v-letter" fill="#fff" stroke="#22bbea" stroke-width="90" d="M1710 793 c0 -16 7 -172 15 -348 8 -176 15 -330 15 -342 0 -22 3 -23
95 -23 l95 0 185 370 185 370 -98 0 -99 0 -103 -235 c-57 -129 -105 -235 -107
-235 -3 0 -2 106 2 235 l8 235 -97 0 -96 0 0 -27z"/>
<path fill="#22bbea" d="M2346 773 c-4 -21 -9 -46 -12 -55 -5 -16 3 -18 79 -18 l85 0 5 29 c3
16 9 40 13 55 l6 26 -85 0 -85 0 -6 -37z"/>
<path fill="#22bbea" d="M3157 763 c-3 -5 -10 -34 -17 -65 -11 -56 -13 -58 -43 -58 -45 0 -55
-10 -63 -58 l-7 -42 37 0 c20 0 36 -4 36 -9 0 -6 -60 -275 -95 -429 -5 -21 -3
-22 78 -22 l83 0 18 77 c10 43 26 116 37 163 11 47 26 115 35 152 l16 67 41 3
c37 3 42 6 50 37 11 46 3 61 -34 61 -34 0 -33 -7 -12 103 l6 27 -81 0 c-45 0
-83 -3 -85 -7z"/>
<path fill="#22bbea" d="M2323 632 c-9 -5 -133 -515 -133 -546 0 -4 37 -6 82 -4 l82 3 17 75
c73 309 107 465 103 472 -6 10 -135 10 -151 0z"/>
<path fill="#22bbea" d="M2624 630 c-17 -5 -39 -19 -49 -30 -19 -21 -114 -398 -115 -457 0
-56 22 -63 212 -63 186 0 173 -5 181 70 l2 25 -112 3 c-62 1 -113 4 -113 5 1
1 7 27 14 57 l12 55 116 5 c150 6 156 11 188 151 41 184 42 183 -158 186 -81
1 -161 -2 -178 -7z m186 -102 c0 -7 -4 -29 -9 -48 -5 -19 -12 -47 -15 -62 -6
-26 -10 -28 -57 -28 -48 0 -51 1 -45 23 3 12 11 46 17 75 l12 52 49 0 c32 0
48 -4 48 -12z"/>
<path fill="#22bbea" d="M3425 628 c-2 -7 -30 -123 -60 -258 -31 -135 -58 -255 -62 -268 -5
-23 -5 -23 78 -20 l84 3 52 220 c28 121 52 223 52 228 1 4 24 7 51 7 47 0 50
-1 45 -22 -59 -251 -95 -413 -95 -424 0 -11 19 -14 79 -14 67 0 81 3 85 18 18
57 106 458 106 481 0 51 -16 56 -222 59 -149 3 -189 1 -193 -10z"/>
<path fill="#22bbea" d="M4003 632 c-7 -4 -15 -27 -19 -50 l-7 -42 102 0 c55 0 101 -3 101 -7
0 -5 -6 -30 -13 -58 l-13 -50 -117 -5 c-149 -6 -150 -7 -187 -166 -30 -127
-27 -159 14 -170 12 -2 101 -3 200 -2 l179 3 12 50 c7 28 23 95 35 150 12 55
33 144 45 197 25 108 20 136 -25 149 -34 10 -292 10 -307 1z m124 -329 c-3
-10 -11 -42 -17 -70 l-12 -53 -50 0 -50 0 7 33 c22 109 21 107 76 107 43 0 50
-3 46 -17z"/>
<path fill="#22bbea" d="M4460 618 c-11 -26 -120 -503 -120 -524 0 -11 19 -14 80 -14 44 0 80
3 81 8 0 4 24 106 52 227 l52 220 43 3 c29 2 42 -1 42 -10 0 -7 -23 -109 -50
-227 -28 -118 -50 -216 -50 -218 0 -2 37 -3 82 -1 l83 3 52 224 c28 123 54
225 56 228 3 2 23 3 45 1 l39 -3 -48 -210 c-27 -116 -49 -218 -49 -227 0 -16
10 -18 79 -18 67 0 80 3 85 18 19 63 106 461 106 483 0 52 -7 54 -341 57
l-309 3 -10 -23z"/>
</g>
</svg>
